<svg xmlns="http://www.w3.org/2000/svg" width="320" height="320" viewBox="0 0 320 320">
  <rect width="320" height="320" fill="#0b141a"/>
  <g fill="none" stroke="#1f2c33" stroke-width="2" stroke-linecap="round" stroke-linejoin="round" opacity="0.8">
    <path d="M24 28h22l6 8-6 8H24l-6-8z"/>
    <path d="M86 22c10 0 18 8 18 18s-8 18-18 18-18-8-18-18 8-18 18-18z"/>
    <path d="M132 30h26v14h-26z"/>
    <path d="M188 22l14 10-14 10-14-10z"/>
    <path d="M236 20h24v24h-24z"/>
    <path d="M278 32h20"/>
    <path d="M40 90l14 10-14 10-14-10z"/>
    <path d="M78 82h24v24H78z"/>
    <path d="M132 86h24"/>
    <path d="M182 78h26l6 8-6 8h-26l-6-8z"/>
    <path d="M242 80c9 0 16 7 16 16s-7 16-16 16-16-7-16-16 7-16 16-16z"/>
    <path d="M286 86h14v20h-14z"/>
    <path d="M26 150h24v24H26z"/>
    <path d="M84 146h18"/>
    <path d="M126 138c11 0 20 9 20 20s-9 20-20 20-20-9-20-20 9-20 20-20z"/>
    <path d="M186 146h24v18h-24z"/>
    <path d="M236 150l12 8-12 8-12-8z"/>
    <path d="M276 142h26l6 8-6 8h-26l-6-8z"/>
    <path d="M36 214h20"/>
    <path d="M76 206h24v24H76z"/>
    <path d="M132 212l12 8-12 8-12-8z"/>
    <path d="M184 202h24v24h-24z"/>
    <path d="M236 210h28"/>
    <path d="M278 206c8 0 14 6 14 14s-6 14-14 14-14-6-14-14 6-14 14-14z"/>
    <path d="M28 266h28l6 8-6 8H28l-6-8z"/>
    <path d="M84 264c9 0 16 7 16 16s-7 16-16 16-16-7-16-16 7-16 16-16z"/>
    <path d="M132 272h24"/>
    <path d="M184 262h24v24h-24z"/>
    <path d="M234 270l12 8-12 8-12-8z"/>
    <path d="M278 272h22"/>
  </g>
</svg>
